<svg width="97" height="25" viewBox="0 0 97 25" fill="none" xmlns="http://www.w3.org/2000/svg">
<path d="M0.955078 0.273438H7.57227V2.63867H5.60352V18.6484H7.57227V21H0.955078V18.6484H2.92383V2.63867H0.955078V0.273438ZM15.7207 18.6484H17.6211V2.51562H12.8906V5.74219H10.0879V0.273438H28.5723V5.74219H25.7695V2.51562H20.3008V18.6484H22.4336V21H15.7207V18.6484ZM29.1328 23.1055H43.1328V24.5H29.1328V23.1055Z" fill="#00508C"/>
<path d="M45.0879 18.6484H47.0566V2.63867H45.0879V0.246094L54.4121 0.273438C55.2507 0.273438 56.0391 0.432943 56.7773 0.751953C57.5156 1.06185 58.1582 1.49023 58.7051 2.03711C59.252 2.57487 59.6803 3.21289 59.9902 3.95117C60.3092 4.68945 60.4688 5.48242 60.4688 6.33008C60.4688 7.21419 60.2227 8.02083 59.7305 8.75C59.2383 9.47917 58.5365 10.0625 57.625 10.5C58.0716 10.737 58.4772 11.015 58.8418 11.334C59.2064 11.6439 59.5163 11.9857 59.7715 12.3594C60.0267 12.7331 60.2227 13.1296 60.3594 13.5488C60.5052 13.9681 60.5781 14.3965 60.5781 14.834C60.5781 15.6999 60.4186 16.5065 60.0996 17.2539C59.7897 18.0013 59.3613 18.653 58.8145 19.209C58.2676 19.765 57.625 20.2025 56.8867 20.5215C56.1576 20.8405 55.3737 21 54.5352 21H45.0879V18.6484ZM49.7363 11.7852V18.6484H54.5625C55 18.6484 55.4056 18.5391 55.7793 18.3203C56.153 18.1016 56.4811 17.819 56.7637 17.4727C57.0462 17.1172 57.265 16.7161 57.4199 16.2695C57.584 15.8229 57.666 15.3672 57.666 14.9023C57.666 14.5013 57.584 14.1139 57.4199 13.7402C57.2559 13.3665 57.0326 13.0339 56.75 12.7422C56.4766 12.4505 56.1484 12.2181 55.7656 12.0449C55.3919 11.8717 54.9909 11.7852 54.5625 11.7852H49.7363ZM49.7363 2.63867V9.40625H54.4395C54.877 9.40625 55.2826 9.31966 55.6562 9.14648C56.0391 8.97331 56.3672 8.74089 56.6406 8.44922C56.9232 8.15755 57.1465 7.82031 57.3105 7.4375C57.4746 7.05469 57.5566 6.6582 57.5566 6.24805C57.5566 5.80143 57.4746 5.36393 57.3105 4.93555C57.1465 4.49805 56.9232 4.11068 56.6406 3.77344C56.3581 3.4362 56.0254 3.16276 55.6426 2.95312C55.2689 2.74349 54.8678 2.63867 54.4395 2.63867H49.7363ZM63.5723 0.273438H78.4199V6.13867H75.6172V2.63867H68.2207V9.26953H74.4414V11.6211H68.2207V18.6484H75.6172V15.1484H78.4199V21H63.5723V18.6484H65.541V2.63867H63.5723V0.273438ZM81.1543 0.273438H87.8809V2.63867H85.8027V18.6484H92.9531C93.099 18.6484 93.2448 18.6165 93.3906 18.5527C93.5365 18.4798 93.6686 18.3887 93.7871 18.2793C93.9056 18.1699 94.0013 18.0469 94.0742 17.9102C94.1471 17.7643 94.1836 17.6185 94.1836 17.4727V14.8613H96.7812V21H81.1543V18.6484H83.123V2.63867H81.1543V0.273438Z" fill="#3F92D2"/>
</svg>
