<svg width="12" height="19" viewBox="0 0 12 19" fill="none" xmlns="http://www.w3.org/2000/svg">
<path d="M0.854817 11.3485C-0.162913 10.3308 -0.162913 8.68071 0.854817 7.66298L7.30449 1.21331C8.32222 0.19558 9.97228 0.19558 10.99 1.21331C12.0077 2.23104 12.0077 3.88111 10.99 4.89884L4.54034 11.3485C3.52261 12.3662 1.87255 12.3662 0.854817 11.3485Z" fill="#878787"/>
<path d="M0.740452 7.75562C1.74541 6.72527 3.39534 6.70468 4.42569 7.70964L10.9553 14.0783C11.9857 15.0833 12.0063 16.7332 11.0013 17.7636C9.99635 18.7939 8.34641 18.8145 7.31606 17.8096L0.786432 11.4409C-0.243915 10.4359 -0.264501 8.78596 0.740452 7.75562Z" fill="#878787"/>
</svg>
