<svg width="13" height="19" viewBox="0 0 13 19" fill="none" xmlns="http://www.w3.org/2000/svg">
<path d="M11.6518 11.3485C12.6695 10.3308 12.6695 8.68071 11.6518 7.66298L5.20211 1.21331C4.18438 0.19558 2.53431 0.19558 1.51658 1.21331C0.498852 2.23104 0.498852 3.88111 1.51658 4.89884L7.96625 11.3485C8.98398 12.3662 10.634 12.3662 11.6518 11.3485Z" fill="#878787"/>
<path d="M11.7661 7.75562C10.7612 6.72527 9.11125 6.70468 8.0809 7.70964L1.55127 14.0783C0.520924 15.0833 0.500337 16.7332 1.50529 17.7636C2.51024 18.7939 4.16018 18.8145 5.19053 17.8096L11.7202 11.4409C12.7505 10.4359 12.7711 8.78596 11.7661 7.75562Z" fill="#878787"/>
</svg>
