<svg width="25" height="25" viewBox="0 0 25 25" fill="none" xmlns="http://www.w3.org/2000/svg">
<g id="icons8-search 1">
<g id="Group">
<g id="Group_2">
<path id="Vector" d="M14.1788 2.5C18.7713 2.5 22.5121 6.24083 22.5121 10.8333C22.5121 15.4258 18.7713 19.1667 14.1788 19.1667C12.1817 19.1667 10.3476 18.4575 8.91023 17.2803L3.93465 22.2559C3.72563 22.4736 3.41526 22.5612 3.12322 22.4851C2.83119 22.409 2.60313 22.1809 2.527 21.8889C2.45087 21.5969 2.53857 21.2865 2.75627 21.0775L7.73185 16.1019C6.55463 14.6645 5.84546 12.8304 5.84546 10.8333C5.84546 6.24083 9.58629 2.5 14.1788 2.5ZM14.1788 4.16667C10.487 4.16667 7.51212 7.14156 7.51212 10.8333C7.51212 14.5251 10.487 17.5 14.1788 17.5C17.8706 17.5 20.8454 14.5251 20.8454 10.8333C20.8454 7.14156 17.8706 4.16667 14.1788 4.16667Z" fill="#878787"/>
</g>
</g>
</g>
</svg>
